<?xml version="1.0" standalone="no"?>
<!DOCTYPE svg PUBLIC "-//W3C//DTD SVG 20010904//EN"
 "http://www.w3.org/TR/2001/REC-SVG-20010904/DTD/svg10.dtd">
<svg version="1.0" xmlns="http://www.w3.org/2000/svg"
 width="2048.000000pt" height="2048.000000pt" viewBox="0 0 2048.000000 2048.000000"
 preserveAspectRatio="xMidYMid meet">

<g transform="translate(0.000000,2048.000000) scale(0.100000,-0.100000)"
fill="#000000" stroke="none">
<path d="M7600 17718 c-89 -25 -135 -97 -151 -235 -5 -48 -13 -91 -17 -94 -4
-3 -94 -18 -200 -32 -147 -20 -202 -31 -233 -49 -22 -12 -73 -62 -113 -111
l-74 -89 -278 -157 c-206 -116 -285 -166 -307 -193 -25 -31 -40 -79 -97 -308
-42 -170 -75 -279 -86 -293 -11 -12 -69 -76 -130 -142 -165 -178 -156 -150
-152 -457 l3 -258 -106 -107 c-266 -272 -278 -290 -257 -386 6 -28 44 -124 84
-214 41 -89 74 -166 74 -171 0 -5 -32 -132 -71 -283 -59 -227 -70 -282 -65
-324 4 -34 40 -121 115 -280 l110 -230 -6 -1270 c-3 -698 -6 -1271 -7 -1272
-1 -1 -39 10 -84 24 -120 37 -144 32 -294 -75 -196 -140 -188 -127 -302 -426
-54 -141 -101 -277 -103 -301 -4 -33 31 -200 147 -694 84 -359 150 -655 146
-658 -3 -3 -201 -14 -438 -24 -238 -10 -449 -21 -468 -24 -45 -9 -86 -39 -106
-77 -24 -46 -33 128 91 -1753 30 -456 64 -969 75 -1140 11 -170 36 -545 56
-832 31 -452 34 -525 22 -542 -8 -11 -39 -47 -69 -79 -64 -69 -161 -175 -372
-410 -140 -155 -156 -177 -167 -225 -7 -28 -24 -97 -40 -152 -15 -55 -44 -163
-64 -240 -20 -77 -129 -482 -242 -900 -197 -730 -205 -762 -194 -805 6 -25 21
-55 33 -67 l22 -23 1405 -2 c773 -1 2064 -5 2870 -9 806 -3 2244 -10 3195 -14
952 -4 2335 -11 3075 -15 740 -3 1818 -6 2395 -6 l1050 1 42 22 c23 13 51 35
62 51 43 60 39 84 -57 407 -50 165 -187 626 -307 1025 -130 437 -225 739 -239
760 -18 27 -506 573 -652 730 l-24 26 45 954 c25 525 68 1434 96 2020 28 586
49 1099 47 1140 -7 112 -55 190 -130 210 -20 6 -190 17 -378 24 -187 7 -343
15 -345 18 -3 3 49 236 115 518 66 283 120 527 120 543 0 43 -148 912 -167
981 -12 43 -28 71 -57 102 -68 70 -108 73 -334 24 -57 -12 -105 -20 -108 -17
-3 2 10 636 27 1408 35 1504 35 1464 -15 1560 -13 26 -144 237 -291 470 l-268
424 -129 495 c-71 273 -139 515 -152 540 -13 25 -39 57 -57 71 -62 49 -2868
1489 -2913 1495 -25 4 -99 -3 -177 -16 l-135 -22 -448 166 c-246 92 -470 170
-497 173 -35 4 -119 -6 -277 -32 l-227 -38 -265 70 c-332 89 -318 86 -376 72
-56 -14 -81 -29 -183 -116 -45 -38 -81 -61 -90 -58 -190 58 -844 235 -866 234
-16 0 -46 -5 -65 -11z m557 -535 c446 -133 455 -133 639 18 l71 58 254 -71
254 -70 236 37 237 37 433 -167 c239 -92 456 -173 482 -181 41 -11 65 -10 145
2 54 8 115 17 137 20 38 6 74 -11 615 -299 984 -521 1859 -986 2005 -1065
l141 -75 123 -493 123 -492 273 -444 274 -444 -9 -560 c-5 -307 -12 -746 -15
-974 -3 -228 -10 -665 -15 -970 -8 -500 -8 -563 7 -633 12 -56 24 -87 43 -107
63 -67 173 -56 312 31 50 32 105 57 142 66 32 7 60 12 61 11 2 -2 29 -154 62
-338 l59 -335 -41 -180 -40 -180 -3 198 -2 197 -545 0 -545 0 0 -230 0 -230
540 0 540 0 -5 -22 c-67 -285 -176 -782 -176 -808 -1 -40 16 -112 37 -151 7
-15 30 -35 51 -45 34 -16 84 -19 428 -29 l390 -10 -2 -105 c-3 -103 -52 -1388
-117 -3055 -28 -742 -31 -846 -18 -895 7 -29 20 -63 28 -74 8 -12 170 -190
361 -398 l346 -376 197 -639 197 -638 -954 -3 -953 -2 0 -135 0 -135 980 0
980 0 1 48 c0 43 4 36 42 -88 l43 -135 -186 -5 c-102 -3 -720 -6 -1375 -8
-654 -1 -1523 -4 -1930 -7 -801 -5 -2732 -11 -7187 -22 l-2847 -6 9 34 c5 19
87 320 181 669 95 349 183 676 196 725 13 50 36 133 52 185 16 52 32 111 36
130 3 19 14 58 22 85 17 54 10 45 428 498 115 126 215 238 222 250 7 12 12 51
13 87 0 71 -72 1375 -189 3410 -21 366 -38 665 -37 666 0 1 210 8 466 16 495
17 513 19 567 70 54 51 57 34 -122 825 l-164 731 85 217 86 216 66 48 65 48
91 -35 c215 -81 250 -85 331 -37 38 22 54 43 69 89 8 23 39 2509 34 2741 l-3
170 -102 215 c-57 119 -103 224 -103 234 0 10 34 144 75 299 87 329 88 290
-15 520 l-62 139 170 171 c148 151 170 177 175 212 4 22 7 148 7 280 l0 241
125 132 c68 73 130 142 137 155 7 12 42 137 78 277 l65 254 110 61 c61 34 175
97 255 141 142 78 182 108 251 191 l35 42 204 26 c244 31 269 37 335 80 57 36
81 76 91 149 4 25 8 46 10 46 2 0 151 -44 331 -97z"/>
<path d="M9180 16690 l0 -210 530 0 530 0 0 210 0 210 -530 0 -530 0 0 -210z"/>
<path d="M6830 16440 l0 -200 925 0 925 0 0 200 0 200 -925 0 -925 0 0 -200z"/>
<path d="M9240 16085 l0 -245 1280 0 1280 0 0 245 0 245 -1280 0 -1280 0 0
-245z"/>
<path d="M7450 15890 l0 -130 595 0 595 0 0 130 0 130 -595 0 -595 0 0 -130z"/>
<path d="M8580 15055 l0 -335 1430 0 1430 0 0 335 0 335 -1430 0 -1430 0 0
-335z m2600 0 l0 -75 -1170 0 -1170 0 0 75 0 75 1170 0 1170 0 0 -75z"/>
<path d="M6340 15035 l0 -275 910 0 910 0 0 275 0 275 -910 0 -910 0 0 -275z
m1560 0 c0 -13 -79 -15 -650 -15 -571 0 -650 2 -650 15 0 13 79 15 650 15 571
0 650 -2 650 -15z"/>
<path d="M11980 14900 l0 -220 790 0 790 0 0 220 0 220 -790 0 -790 0 0 -220z"/>
<path d="M6770 14145 l0 -185 1155 0 1155 0 0 185 0 185 -1155 0 -1155 0 0
-185z"/>
<path d="M10380 13885 l0 -325 1770 0 1770 0 0 325 0 325 -1770 0 -1770 0 0
-325z m3280 0 l0 -65 -1510 0 -1510 0 0 65 0 65 1510 0 1510 0 0 -65z"/>
<path d="M6430 13110 l0 -270 1745 0 1745 0 0 270 0 270 -1745 0 -1745 0 0
-270z"/>
<path d="M10320 12660 l0 -300 1880 0 1880 0 0 300 0 300 -1880 0 -1880 0 0
-300z m3500 0 l0 -40 -1620 0 -1620 0 0 40 0 40 1620 0 1620 0 0 -40z"/>
<path d="M6980 12205 l0 -205 1510 0 1510 0 0 205 0 205 -1510 0 -1510 0 0
-205z"/>
<path d="M12970 11920 l0 -240 695 0 695 0 0 240 0 240 -695 0 -695 0 0 -240z"/>
<path d="M8030 11445 l0 -285 1985 0 1985 0 0 285 0 285 -1985 0 -1985 0 0
-285z m3710 0 l0 -25 -1725 0 -1725 0 0 25 0 25 1725 0 1725 0 0 -25z"/>
<path d="M6430 10665 l0 -225 1145 0 1145 0 0 225 0 225 -1145 0 -1145 0 0
-225z"/>
<path d="M10020 10480 l0 -240 2190 0 2190 0 0 240 0 240 -2190 0 -2190 0 0
-240z"/>
<path d="M5400 10030 l0 -190 1040 0 1040 0 0 190 0 190 -1040 0 -1040 0 0
-190z"/>
<path d="M7850 9785 l0 -265 1355 0 1355 0 0 265 0 265 -1355 0 -1355 0 0
-265z"/>
<path d="M11190 9855 l0 -175 1185 0 1185 0 0 175 0 175 -1185 0 -1185 0 0
-175z"/>
<path d="M5960 9005 l0 -285 2140 0 2140 0 0 285 0 285 -2140 0 -2140 0 0
-285z m4020 0 l0 -25 -1880 0 -1880 0 0 25 0 25 1880 0 1880 0 0 -25z"/>
<path d="M10710 8480 l0 -480 1885 0 1885 0 0 480 0 480 -1885 0 -1885 0 0
-480z m3510 0 l0 -220 -1625 0 -1625 0 0 220 0 220 1625 0 1625 0 0 -220z"/>
<path d="M4600 7875 l0 -275 560 0 560 0 0 275 0 275 -560 0 -560 0 0 -275z
m860 0 c0 -13 -40 -15 -300 -15 -260 0 -300 2 -300 15 0 13 40 15 300 15 260
0 300 -2 300 -15z"/>
<path d="M6320 7655 l0 -215 1680 0 1680 0 0 215 0 215 -1680 0 -1680 0 0
-215z"/>
<path d="M13830 7540 l0 -260 905 0 905 0 0 260 0 260 -905 0 -905 0 0 -260z"/>
<path d="M10480 7320 l0 -240 1500 0 1500 0 0 240 0 240 -1500 0 -1500 0 0
-240z"/>
<path d="M5110 6985 l0 -225 1265 0 1265 0 0 225 0 225 -1265 0 -1265 0 0
-225z"/>
<path d="M12260 6605 l0 -285 1210 0 1210 0 0 285 0 285 -1210 0 -1210 0 0
-285z m2160 0 l0 -25 -950 0 -950 0 0 25 0 25 950 0 950 0 0 -25z"/>
<path d="M8730 5805 l0 -725 1375 0 1375 0 0 725 0 725 -1375 0 -1375 0 0
-725z m2490 0 l0 -465 -1115 0 -1115 0 0 465 0 465 1115 0 1115 0 0 -465z"/>
<path d="M5650 5930 l0 -250 1475 0 1475 0 0 250 0 250 -1475 0 -1475 0 0
-250z"/>
<path d="M14130 5900 l0 -220 755 0 755 0 0 220 0 220 -755 0 -755 0 0 -220z"/>
<path d="M11900 5445 l0 -245 990 0 990 0 0 245 0 245 -990 0 -990 0 0 -245z"/>
<path d="M4740 5195 l0 -315 950 0 950 0 0 315 0 315 -950 0 -950 0 0 -315z
m1640 0 l0 -55 -690 0 -690 0 0 55 0 55 690 0 690 0 0 -55z"/>
<path d="M6940 4715 l0 -315 770 0 770 0 0 315 0 315 -770 0 -770 0 0 -315z
m1280 0 l0 -55 -510 0 -510 0 0 55 0 55 510 0 510 0 0 -55z"/>
<path d="M9500 4515 l0 -195 1850 0 1850 0 0 195 0 195 -1850 0 -1850 0 0
-195z"/>
<path d="M4970 3870 l0 -230 2575 0 2575 0 0 230 0 230 -2575 0 -2575 0 0
-230z"/>
<path d="M12130 3800 l0 -280 1795 0 1795 0 0 280 0 280 -1795 0 -1795 0 0
-280z m3330 0 c0 -20 -7 -20 -1535 -20 -1528 0 -1535 0 -1535 20 0 20 7 20
1535 20 1528 0 1535 0 1535 -20z"/>
<path d="M10980 3010 l0 -210 1510 0 1510 0 0 210 0 210 -1510 0 -1510 0 0
-210z"/>
<path d="M4090 2815 l0 -295 2655 0 2655 0 0 295 0 295 -2655 0 -2655 0 0
-295z m5050 0 l0 -35 -2395 0 -2395 0 0 35 0 35 2395 0 2395 0 0 -35z"/>
<path d="M14460 2465 l0 -185 970 0 970 0 0 185 0 185 -970 0 -970 0 0 -185z"/>
<path d="M5380 2070 l0 -310 4150 0 4150 0 0 310 0 310 -4150 0 -4150 0 0
-310z m8040 0 l0 -50 -3890 0 -3890 0 0 50 0 50 3890 0 3890 0 0 -50z"/>
<path d="M3740 2125 l0 -165 590 0 590 0 0 165 0 165 -590 0 -590 0 0 -165z"/>
</g>
</svg>
