<?xml version="1.0" standalone="no"?>
<!DOCTYPE svg PUBLIC "-//W3C//DTD SVG 20010904//EN"
 "http://www.w3.org/TR/2001/REC-SVG-20010904/DTD/svg10.dtd">
<svg version="1.0" xmlns="http://www.w3.org/2000/svg"
 width="512.000000pt" height="512.000000pt" viewBox="0 0 512.000000 512.000000"
 preserveAspectRatio="xMidYMid meet">

<g transform="translate(0.000000,512.000000) scale(0.100000,-0.100000)"
fill="#000000" stroke="none">
<path d="M4199 4213 c-6 -16 -21 -59 -34 -98 -12 -38 -93 -277 -180 -530 -86
-253 -196 -577 -245 -720 -48 -143 -93 -273 -99 -288 -24 -60 -35 -58 256 -55
l266 3 18 50 c32 92 211 608 264 765 29 85 110 319 179 519 69 201 126 368
126 373 0 4 -122 8 -270 8 l-270 0 -11 -27z"/>
<path d="M1056 3429 c-363 -53 -731 -318 -918 -659 -40 -72 -100 -235 -91
-244 4 -3 124 -6 268 -6 l263 0 25 53 c70 140 236 278 391 322 45 13 85 16
161 13 l101 -5 54 146 c29 80 71 193 92 250 21 57 37 106 34 108 -2 3 -46 11
-98 19 -102 15 -191 16 -282 3z"/>
<path d="M2431 3399 c-335 -72 -682 -337 -841 -641 -43 -82 -90 -199 -90 -223
0 -13 36 -15 266 -13 l267 3 39 65 c70 118 212 234 344 281 76 28 343 39 384
16 42 -22 31 -88 -60 -359 -44 -130 -80 -241 -80 -247 0 -8 79 -11 267 -9
l267 3 91 270 c97 289 125 407 125 524 0 107 -15 147 -80 212 -98 98 -220 127
-575 134 -206 4 -240 3 -324 -16z"/>
<path d="M26 2372 c-11 -98 16 -247 61 -337 89 -176 234 -301 413 -356 74 -23
81 -23 665 -27 l589 -3 -39 27 c-79 53 -127 98 -180 168 -69 92 -104 162 -130
261 l-22 80 -364 5 c-357 5 -365 5 -400 28 -48 29 -73 82 -73 155 l-1 57 -256
0 -256 0 -7 -58z"/>
<path d="M1474 2374 c-15 -122 17 -273 84 -394 46 -84 168 -206 247 -247 33
-17 94 -42 135 -55 l75 -23 930 -3 929 -3 -47 31 c-140 93 -250 252 -298 427
l-22 82 -711 3 c-806 3 -749 -3 -788 85 -15 34 -19 60 -16 99 l5 54 -258 0
-258 0 -7 -56z"/>
<path d="M3604 2394 c-4 -20 -4 -79 -1 -132 15 -284 197 -511 467 -584 82 -22
100 -23 465 -23 l379 0 12 35 c38 107 154 473 154 486 0 12 -61 14 -427 14
-388 0 -431 2 -462 18 -52 26 -72 73 -69 155 l3 67 -257 0 -257 0 -7 -36z"/>
<path d="M2331 1519 c-46 -53 -124 -110 -208 -153 -98 -49 -153 -56 -465 -56
l-287 0 -83 -257 -84 -258 355 -3 c379 -2 461 4 594 49 305 102 602 351 745
626 23 45 42 86 42 92 0 8 -84 11 -282 11 l-283 -1 -44 -50z"/>
</g>
</svg>
