<?xml version="1.0" standalone="no"?>
<!DOCTYPE svg PUBLIC "-//W3C//DTD SVG 20010904//EN"
 "http://www.w3.org/TR/2001/REC-SVG-20010904/DTD/svg10.dtd">
<svg version="1.0" xmlns="http://www.w3.org/2000/svg"
 width="660.000000pt" height="100.000000pt" viewBox="0 0 660.000000 100.000000"
 preserveAspectRatio="xMidYMid meet">

<g transform="translate(0.000000,100.000000) scale(0.100000,-0.100000)"
fill="#000000" stroke="none">
<path d="M540 941 c-49 -13 -68 -23 -77 -41 -11 -22 -9 -28 20 -58 29 -30 33
-31 44 -16 7 10 16 15 19 11 10 -10 -7 -67 -20 -67 -6 0 -31 20 -55 44 -35 35
-43 50 -39 70 3 14 3 26 1 26 -3 0 -33 -8 -68 -17 -49 -13 -62 -20 -54 -30 7
-7 22 -10 40 -6 23 4 36 0 54 -17 31 -29 22 -47 -11 -21 -32 25 -68 15 -72
-20 -2 -17 8 -35 33 -59 33 -32 45 -60 27 -60 -4 0 -23 16 -42 35 l-34 35 -23
-81 c-12 -45 -28 -86 -35 -90 -22 -14 -75 -10 -88 7 -17 19 -64 14 -68 -8 -2
-12 2 -15 17 -11 31 8 25 -14 -7 -29 -56 -27 -32 -94 29 -81 38 7 38 -12 0
-25 -44 -16 -44 -43 1 -96 53 -62 40 -72 -18 -15 -40 39 -44 48 -42 83 4 53
-15 56 -29 4 l-12 -43 79 -79 79 -80 11 28 c17 46 12 71 -25 106 -19 19 -35
41 -35 49 0 9 17 -2 44 -28 41 -41 46 -43 85 -36 22 4 44 11 47 17 3 5 -9 25
-27 44 -34 35 -34 61 0 30 11 -10 32 -16 54 -14 19 1 42 -4 51 -11 14 -12 16
-11 16 7 0 26 -23 44 -52 40 -35 -4 -37 14 -3 24 25 6 34 3 58 -19 23 -22 26
-33 21 -58 -9 -45 -21 -52 -47 -27 -24 22 -47 29 -47 13 0 -5 7 -14 15 -21 21
-18 13 -25 -50 -40 -64 -15 -68 -20 -83 -80 l-11 -45 59 -60 c48 -47 60 -56
60 -39 0 11 -16 35 -35 54 -33 32 -45 60 -27 60 4 0 26 -18 47 -40 32 -33 39
-47 40 -80 0 -72 22 -44 49 65 6 23 4 25 -19 19 -37 -9 -79 30 -71 67 4 23 2
26 -20 21 -35 -6 -30 15 6 23 41 9 45 5 42 -36 -7 -76 67 -75 86 2 6 24 9 45
7 47 -7 8 -26 -10 -35 -34 -5 -13 -15 -24 -21 -24 -6 0 -8 7 -5 16 3 9 6 22 6
30 0 8 16 22 35 29 28 12 36 23 45 57 6 24 15 56 20 72 13 39 13 39 -13 32
-35 -8 -81 41 -71 78 5 22 -1 34 -37 73 -56 61 -33 71 27 12 40 -39 43 -46 38
-79 -7 -43 13 -65 50 -56 20 5 27 16 37 61 12 55 12 56 -16 85 -16 17 -32 30
-37 30 -15 0 -8 -23 13 -46 16 -17 19 -28 12 -53 -9 -36 -29 -39 -25 -4 2 12
-6 35 -17 50 -18 25 -19 33 -9 65 l11 37 46 -41 c38 -33 47 -37 49 -23 2 10
-11 33 -32 53 -30 30 -41 36 -74 34 -28 -2 -43 3 -56 17 -27 29 -16 46 15 23
17 -14 34 -18 53 -15 22 5 35 -2 66 -32 l38 -37 10 34 c20 62 43 160 39 164
-2 3 -16 0 -31 -6 -15 -5 -36 -10 -47 -10 -35 0 -19 17 29 30 49 14 72 27 72
41 0 11 0 11 -80 -10z m-220 -345 c0 -48 -16 -61 -109 -85 -51 -13 -95 -21
-99 -17 -10 11 14 22 95 42 66 16 77 22 85 46 10 30 28 38 28 14z m36 -80 c-4
-17 -20 -27 -68 -42 -51 -15 -64 -23 -66 -42 -2 -13 4 -32 14 -43 26 -29 7
-37 -21 -8 -21 20 -24 31 -19 58 7 35 20 43 91 61 33 8 44 17 53 43 10 25 14
28 17 14 3 -10 2 -29 -1 -41z"/>
<path d="M641 893 c-7 -26 -14 -56 -17 -66 -5 -14 -1 -17 18 -12 33 8 83 -43
73 -75 -6 -19 -4 -21 14 -15 15 5 21 2 21 -9 0 -9 -6 -16 -12 -16 -7 0 -24 -3
-37 -7 -22 -6 -23 -4 -17 34 8 45 -8 67 -46 61 -17 -2 -26 -14 -37 -46 -7 -24
-11 -46 -7 -49 10 -10 36 18 36 39 0 11 5 18 13 15 11 -4 12 -24 2 -54 -2 -7
-19 -19 -38 -26 -28 -12 -35 -22 -45 -63 -6 -27 -14 -59 -18 -71 -5 -19 -2
-23 18 -23 36 0 77 -48 68 -80 -6 -20 0 -33 33 -67 56 -59 43 -78 -17 -23 -44
40 -47 46 -41 80 5 28 2 40 -12 53 -33 29 -60 12 -78 -50 l-16 -56 32 -33 c41
-43 64 -30 30 16 -17 23 -21 39 -16 61 9 38 29 39 22 0 -4 -21 -1 -34 13 -46
22 -20 25 -41 10 -81 l-11 -27 -44 43 c-43 42 -45 43 -45 19 0 -15 13 -38 34
-58 30 -29 39 -33 68 -27 28 5 38 2 58 -19 27 -29 20 -47 -9 -21 -12 11 -32
16 -55 14 -29 -2 -42 4 -71 32 -19 18 -37 32 -39 29 -2 -2 -15 -46 -29 -98
l-26 -93 29 5 c15 4 39 9 54 13 16 4 26 2 26 -4 0 -11 -5 -13 -77 -32 -26 -6
-43 -17 -43 -25 0 -19 11 -19 90 3 77 22 86 42 44 97 -28 37 -44 44 -44 20 0
-8 -6 -15 -14 -15 -12 0 -13 7 -6 31 5 18 12 34 15 38 4 3 29 -18 56 -47 38
-39 49 -57 44 -72 -8 -25 7 -26 81 -4 61 17 63 36 3 32 -29 -1 -45 4 -61 20
-26 25 -16 43 10 19 35 -31 82 -15 82 27 0 11 -19 40 -42 63 -26 27 -36 43
-27 43 8 0 28 -14 44 -30 16 -17 32 -30 35 -30 4 0 14 33 24 74 19 80 26 91
69 101 22 6 34 2 52 -15 21 -20 28 -22 50 -12 30 14 35 43 5 35 -11 -3 -20 0
-20 6 0 6 11 13 25 17 30 7 43 47 24 70 -9 11 -23 14 -46 11 -25 -4 -33 -2
-33 9 0 8 8 14 18 14 24 0 42 19 42 44 0 11 -19 40 -42 63 -26 26 -36 43 -27
43 8 0 34 -19 57 -43 37 -38 41 -46 36 -78 -8 -47 11 -59 25 -17 20 57 14 71
-64 148 -41 41 -76 72 -78 69 -2 -2 -9 -24 -15 -49 -11 -45 -11 -45 30 -87 55
-56 40 -69 -16 -14 l-43 42 -46 -13 -47 -12 37 -38 c37 -38 40 -67 4 -34 -15
13 -28 16 -51 11 -22 -5 -36 -2 -49 9 -17 16 -19 16 -25 0 -11 -29 21 -53 61
-47 45 8 37 -12 -8 -22 -24 -5 -36 -2 -55 16 -26 25 -29 44 -14 85 l11 27 22
-22 c22 -20 57 -29 57 -14 0 3 -7 14 -16 24 -17 19 -16 19 88 44 23 6 29 15
39 62 l12 54 -56 57 c-46 45 -57 53 -57 36 0 -11 16 -35 35 -54 19 -19 35 -38
35 -42 0 -20 -26 -5 -59 34 -26 31 -36 52 -36 77 0 52 -21 48 -34 -6z m188
-355 c-11 -40 -11 -40 -77 -59 -45 -12 -58 -20 -62 -39 -3 -13 -12 -26 -19
-28 -11 -4 -12 2 -7 24 11 42 21 51 77 64 60 15 84 47 56 78 -30 32 -19 48 12
18 25 -24 28 -32 20 -58z m84 -68 c-4 -4 -44 -17 -87 -28 -76 -21 -96 -32 -96
-59 0 -7 -4 -13 -10 -13 -14 0 -12 33 3 53 7 10 50 28 97 41 79 22 113 24 93
6z"/>
<path d="M202 849 c-35 -14 -16 -32 25 -24 26 5 34 3 31 -6 -7 -22 -60 -30
-84 -14 -20 13 -22 12 -28 -17 -3 -17 -4 -33 -1 -36 2 -3 25 1 50 8 40 11 48
11 64 -4 18 -16 19 -15 30 30 9 35 9 49 0 60 -13 16 -53 17 -87 3z"/>
<path d="M4653 743 c-21 -8 -15 -43 6 -43 11 0 23 5 27 11 8 14 -17 38 -33 32z"/>
<path d="M166 727 c-48 -15 -65 -43 -20 -33 16 3 43 9 61 12 l31 6 -10 -41
c-12 -45 -28 -55 -28 -16 0 28 -4 29 -51 13 -50 -17 -71 -54 -23 -42 18 5 31
0 49 -16 35 -33 61 -20 79 43 14 47 14 53 -1 69 -18 21 -32 21 -87 5z"/>
<path d="M1650 649 l0 -91 -34 21 c-42 27 -100 27 -136 1 -82 -59 -78 -266 6
-311 43 -23 101 -16 135 17 l29 28 0 -27 c0 -17 5 -27 15 -27 13 0 15 33 15
240 0 207 -2 240 -15 240 -12 0 -15 -17 -15 -91z m-39 -92 l34 -23 3 -97 c3
-97 2 -98 -27 -127 -36 -36 -86 -40 -124 -9 -66 51 -58 226 12 264 37 20 63
18 102 -8z"/>
<path d="M3957 733 c-4 -3 -7 -105 -7 -225 0 -205 1 -219 20 -238 21 -21 29
-23 54 -14 24 9 19 24 -8 24 -13 0 -27 7 -30 16 -3 9 -6 112 -6 230 0 195 -4
227 -23 207z"/>
<path d="M5587 733 c-9 -8 -9 -410 0 -441 6 -26 44 -45 68 -36 22 9 19 24 -5
24 -35 0 -40 31 -40 249 0 193 -4 224 -23 204z"/>
<path d="M6110 500 c0 -207 2 -240 15 -240 8 0 15 9 15 20 0 20 1 20 31 -2 22
-16 43 -23 75 -22 70 1 108 48 120 146 8 68 -10 133 -46 170 -39 39 -105 40
-149 2 l-31 -26 0 96 c0 79 -3 96 -15 96 -13 0 -15 -33 -15 -240z m164 70 c38
-14 56 -59 56 -140 0 -76 -16 -122 -49 -140 -34 -18 -78 -11 -110 16 -31 25
-31 27 -31 117 1 96 5 109 50 140 28 19 48 21 84 7z"/>
<path d="M2160 640 c0 -38 -2 -40 -30 -40 -20 0 -30 -5 -30 -15 0 -10 10 -15
30 -15 l30 0 0 -133 c0 -145 7 -169 56 -181 29 -8 97 11 89 24 -3 4 -22 6 -43
3 -65 -9 -72 7 -72 158 l0 129 45 0 c33 0 45 4 45 15 0 11 -12 15 -45 15 l-45
0 0 40 c0 29 -4 40 -15 40 -11 0 -15 -11 -15 -40z"/>
<path d="M4430 640 c0 -36 -2 -40 -25 -40 -16 0 -25 -6 -25 -15 0 -9 9 -15 25
-15 l25 0 0 -125 c0 -72 5 -135 11 -149 14 -30 63 -49 101 -38 40 10 30 28
-13 24 -59 -6 -69 18 -69 165 l0 123 45 0 c33 0 45 4 45 15 0 11 -12 15 -45
15 l-45 0 0 40 c0 29 -4 40 -15 40 -11 0 -15 -11 -15 -40z"/>
<path d="M1831 589 c-42 -17 -10 -28 46 -16 48 10 56 9 80 -10 21 -15 29 -30
31 -61 l3 -42 -55 0 c-102 0 -146 -32 -146 -108 0 -38 5 -53 23 -69 44 -41
114 -38 163 8 21 20 21 20 27 0 5 -21 33 -38 43 -28 4 3 -1 16 -10 29 -12 17
-16 48 -16 141 0 112 -1 119 -25 142 -20 21 -33 25 -82 24 -32 0 -69 -5 -82
-10z m159 -201 c-1 -74 -33 -108 -99 -108 -55 0 -87 57 -65 115 10 24 61 44
117 45 l47 0 0 -52z"/>
<path d="M2393 590 c-36 -15 -29 -33 10 -23 17 4 49 8 71 7 47 0 76 -30 76
-80 l0 -34 -57 0 c-102 0 -163 -51 -149 -124 14 -76 110 -106 177 -57 l31 23
14 -21 c9 -12 22 -21 30 -21 18 0 18 8 -1 26 -12 12 -15 42 -15 135 0 120 0
121 -29 150 -25 25 -37 29 -83 28 -29 0 -63 -4 -75 -9z m157 -201 c0 -43 -5
-55 -29 -80 -54 -53 -141 -31 -141 36 0 18 3 41 6 50 10 24 61 44 117 45 l47
0 0 -51z"/>
<path d="M2913 590 c-33 -14 -29 -32 5 -23 45 13 111 9 128 -8 8 -9 18 -34 21
-56 l5 -41 -71 -4 c-109 -6 -156 -53 -135 -135 17 -71 119 -93 178 -38 l24 22
11 -23 c6 -13 17 -24 26 -24 17 0 20 11 6 25 -5 6 -11 68 -13 138 -3 127 -3
129 -31 153 -22 19 -39 24 -80 23 -29 0 -62 -4 -74 -9z m155 -203 c3 -41 -1
-51 -27 -77 -67 -68 -174 -13 -142 73 14 37 57 57 116 54 l50 -2 3 -48z"/>
<path d="M3240 430 c0 -144 2 -170 15 -170 13 0 15 21 15 126 0 125 0 126 29
154 36 37 77 47 110 29 34 -19 39 -43 40 -186 1 -106 3 -123 17 -123 14 0 15
17 12 144 -3 137 -4 146 -27 170 -36 39 -98 36 -146 -5 l-35 -31 -6 31 c-15
73 -24 20 -24 -139z"/>
<path d="M3633 593 c-13 -2 -23 -11 -23 -19 0 -11 7 -13 28 -7 15 5 47 8 71 8
51 -1 71 -21 71 -76 l0 -36 -71 -5 c-60 -5 -75 -10 -100 -34 -22 -21 -29 -37
-29 -67 0 -52 15 -76 57 -93 44 -19 89 -10 125 23 26 25 26 25 33 4 8 -26 45
-49 45 -28 0 7 -5 18 -12 25 -8 8 -14 60 -18 143 -5 122 -7 132 -29 150 -23
18 -87 24 -148 12z m147 -208 c0 -48 -4 -60 -26 -80 -29 -27 -80 -33 -114 -15
-28 15 -36 74 -16 106 21 32 48 43 109 43 l47 1 0 -55z"/>
<path d="M4116 473 c25 -71 54 -151 65 -180 20 -50 20 -53 3 -82 -10 -17 -33
-38 -51 -46 -33 -16 -44 -35 -20 -35 20 0 75 37 91 63 20 29 148 398 142 405
-17 16 -37 -23 -79 -158 -27 -86 -52 -149 -57 -144 -4 5 -29 75 -55 157 -37
118 -50 147 -65 147 -16 0 -13 -14 26 -127z"/>
<path d="M4650 430 c0 -144 2 -170 15 -170 13 0 15 26 15 170 0 144 -2 170
-15 170 -13 0 -15 -26 -15 -170z"/>
<path d="M4855 578 c-59 -46 -82 -156 -49 -238 28 -69 102 -103 173 -77 40 14
59 45 20 33 -80 -25 -130 -13 -156 38 -22 43 -22 142 0 184 10 18 34 40 53 49
29 14 40 15 67 5 45 -18 49 -18 54 -6 6 16 -42 34 -91 34 -29 0 -52 -7 -71
-22z"/>
<path d="M5135 588 c-32 -17 -45 -39 -45 -75 0 -42 25 -65 96 -87 93 -29 118
-73 69 -121 -29 -30 -89 -34 -137 -9 -20 10 -34 12 -40 6 -7 -7 -1 -15 18 -25
72 -36 157 -27 193 20 45 57 14 123 -71 148 -74 22 -98 40 -98 75 0 23 7 33
30 45 37 19 63 19 102 -1 20 -10 34 -12 40 -6 29 29 -111 56 -157 30z"/>
<path d="M5781 589 c-42 -17 -10 -28 46 -16 48 10 56 9 80 -10 21 -15 29 -30
31 -61 l3 -42 -55 0 c-102 0 -146 -32 -146 -108 0 -38 5 -53 23 -69 44 -41
114 -38 163 8 21 20 21 20 27 0 5 -21 33 -38 43 -28 4 3 -1 16 -10 29 -12 17
-16 48 -16 141 0 112 -1 119 -25 142 -20 21 -33 25 -82 24 -32 0 -69 -5 -82
-10z m159 -201 c-1 -74 -33 -108 -99 -108 -55 0 -87 57 -65 115 10 24 61 44
117 45 l47 0 0 -52z"/>
<path d="M780 356 c-35 -94 -15 -132 60 -114 45 11 79 32 68 43 -3 4 -30 -1
-59 -9 -29 -9 -54 -14 -57 -12 -2 3 1 21 8 40 13 41 36 50 26 11 -4 -14 -5
-25 -4 -25 2 0 23 6 48 14 50 15 69 46 27 46 -14 0 -30 7 -37 15 -20 25 -69
19 -80 -9z"/>
<path d="M740 205 c-14 -37 -13 -70 4 -84 21 -18 111 6 95 25 -7 8 -21 11 -40
7 -18 -3 -29 -1 -29 5 0 17 68 26 85 12 19 -16 21 -14 30 29 7 33 6 34 -20 27
-66 -17 -86 -18 -100 -6 -12 10 -16 8 -25 -15z"/>
</g>
</svg>
