<?xml version="1.0" standalone="no"?>
<!DOCTYPE svg PUBLIC "-//W3C//DTD SVG 20010904//EN"
 "http://www.w3.org/TR/2001/REC-SVG-20010904/DTD/svg10.dtd">
<svg version="1.0" xmlns="http://www.w3.org/2000/svg"
 width="930.000000pt" height="341.000000pt" viewBox="0 0 930.000000 341.000000"
 preserveAspectRatio="xMidYMid meet">

<g transform="translate(0.000000,341.000000) scale(0.100000,-0.100000)"
fill="#000000" stroke="none">
<path d="M1705 2208 c-2 -7 -47 -227 -99 -488 -53 -261 -98 -485 -101 -497
l-5 -23 388 0 388 0 22 113 c12 62 22 121 22 130 0 15 -21 17 -226 17 -210 0
-225 1 -220 18 2 9 7 33 11 52 14 77 -9 70 244 70 l227 0 19 98 c10 53 20 103
22 110 4 9 -44 12 -221 12 -257 0 -236 -8 -215 90 l11 50 359 0 c197 0 359 -4
359 -8 0 -8 -135 -689 -145 -729 l-5 -23 160 0 c88 0 160 1 160 3 0 1 34 171
75 377 41 206 75 376 75 377 0 2 60 3 134 3 l133 0 -73 -367 c-41 -202 -74
-373 -74 -380 0 -11 33 -13 157 -11 l157 3 36 180 c20 99 39 188 43 198 5 15
21 17 110 17 57 0 106 -2 109 -5 4 -4 -48 -296 -67 -372 l-5 -23 160 0 c88 0
160 2 160 4 0 2 45 228 100 501 55 274 100 502 100 507 0 5 -71 7 -157 6
l-158 -3 -40 -195 -40 -195 -113 -3 c-61 -1 -112 1 -112 6 0 5 16 87 35 182
19 95 35 182 35 192 0 17 -36 18 -965 18 -764 0 -966 -3 -970 -12z"/>
<path d="M5175 2208 c-5 -16 -24 -100 -25 -110 0 -5 22 -8 49 -8 55 0 57 2 67
80 l7 50 -47 0 c-28 0 -48 -5 -51 -12z"/>
<path d="M5446 2208 c-6 -20 -26 -106 -26 -113 0 -3 23 -5 52 -3 l52 3 12 57
c6 32 9 60 6 63 -11 11 -93 5 -96 -7z"/>
<path d="M6421 2163 c-6 -31 -11 -60 -11 -65 0 -4 22 -8 49 -8 l49 0 11 50
c17 80 17 80 -38 80 l-48 0 -12 -57z"/>
<path d="M7385 2210 c-4 -7 -205 -993 -205 -1007 0 -2 22 -3 49 -3 39 0 51 4
55 18 3 9 24 112 46 227 23 116 49 226 57 245 48 118 216 167 282 83 31 -38
27 -89 -24 -343 -25 -123 -45 -225 -45 -227 0 -2 22 -3 49 -3 39 0 51 4 55 18
13 41 96 469 96 492 0 86 -62 169 -140 190 -60 16 -134 5 -197 -30 -29 -15
-53 -27 -53 -26 0 2 16 81 35 176 19 95 35 179 35 187 0 15 -85 19 -95 3z"/>
<path d="M6005 1901 c-39 -10 -74 -28 -104 -55 l-24 -21 6 38 6 37 -49 0 c-43
0 -50 -3 -55 -22 -6 -25 -135 -670 -135 -675 0 -2 22 -3 50 -3 43 0 50 3 55
23 3 12 25 120 49 240 49 241 63 275 137 324 53 35 124 38 167 6 l30 -22 38
34 39 35 -28 24 c-44 40 -112 54 -182 37z"/>
<path d="M6849 1897 c-102 -29 -169 -87 -223 -194 -51 -102 -71 -264 -44 -354
28 -97 119 -154 240 -153 56 0 78 6 134 35 88 45 97 59 60 98 l-29 30 -42 -30
c-98 -71 -215 -55 -256 34 -44 99 -2 294 85 385 76 82 182 92 253 26 l36 -34
33 28 c40 33 41 42 7 74 -62 58 -165 80 -254 55z"/>
<path d="M4396 1869 c-12 -61 -20 -58 163 -61 l169 -3 -225 -255 c-124 -140
-229 -265 -234 -278 -5 -13 -9 -34 -9 -48 l0 -24 245 0 c201 0 245 2 245 14 0
7 3 27 6 45 l6 31 -182 2 -182 3 217 245 c120 135 223 252 231 260 7 9 16 35
20 58 l7 42 -235 0 -235 0 -7 -31z"/>
<path d="M5035 1888 c-13 -39 -95 -479 -95 -508 1 -80 63 -159 142 -181 70
-18 175 7 227 54 l24 22 -6 -37 -6 -38 49 0 c43 0 50 3 55 23 6 26 135 669
135 675 0 1 -23 2 -52 0 l-52 -3 -46 -230 c-26 -126 -54 -247 -64 -268 -39
-79 -137 -128 -216 -107 -56 15 -80 50 -80 117 0 42 51 324 85 471 5 21 2 22
-45 22 -32 0 -52 -5 -55 -12z"/>
<path d="M6365 1878 c-6 -25 -135 -670 -135 -675 0 -2 22 -3 49 -3 39 0 51 4
55 18 3 9 32 159 66 332 33 173 63 323 66 333 5 15 -2 17 -45 17 -44 0 -51 -3
-56 -22z"/>
</g>
</svg>
