<?xml version="1.0" standalone="no"?>
<!DOCTYPE svg PUBLIC "-//W3C//DTD SVG 20010904//EN"
 "http://www.w3.org/TR/2001/REC-SVG-20010904/DTD/svg10.dtd">
<svg version="1.0" xmlns="http://www.w3.org/2000/svg"
 width="1286.000000pt" height="429.000000pt" viewBox="0 0 1286.000000 429.000000"
 preserveAspectRatio="xMidYMid meet">

<g transform="translate(0.000000,429.000000) scale(0.100000,-0.100000)"
fill="#000000" stroke="none">
<path d="M1515 4206 c-555 -91 -1064 -459 -1310 -946 -104 -206 -148 -384
-148 -595 0 -156 13 -235 59 -375 97 -292 324 -556 589 -685 142 -69 213 -88
345 -89 196 -1 339 65 527 248 46 44 84 78 86 75 2 -2 15 -24 29 -49 15 -25
49 -67 78 -94 28 -26 50 -49 48 -50 -2 -1 -37 -22 -78 -46 -97 -57 -173 -129
-207 -197 -29 -60 -33 -129 -23 -338 7 -131 -3 -154 -84 -201 -78 -46 -103
-69 -117 -111 -22 -69 41 -140 147 -164 129 -29 299 39 485 193 25 21 48 38
51 38 3 0 15 -27 27 -60 66 -180 275 -383 451 -438 40 -12 89 -17 180 -17 108
1 149 6 297 39 94 21 178 36 187 33 10 -4 16 -18 16 -37 0 -63 53 -127 113
-137 104 -17 173 60 192 214 l7 52 44 -20 c65 -27 392 -106 579 -139 348 -61
461 -75 635 -75 170 0 235 12 347 64 213 100 274 319 125 453 -86 77 -226 143
-616 289 -94 35 -120 49 -127 68 -12 30 -6 36 19 22 12 -6 38 -11 60 -11 70 0
95 34 132 179 l11 43 69 -6 c58 -6 75 -4 109 13 80 41 130 138 131 252 0 87
-29 160 -83 205 -54 46 -205 112 -347 152 l-135 38 -3 51 c-2 27 1 71 5 97 l8
47 125 55 c317 139 498 242 593 339 210 212 108 476 -199 515 -72 10 -216 7
-335 -5 l-47 -5 -4 60 c-4 49 -9 66 -31 88 -38 37 -102 37 -178 0 -31 -16 -64
-28 -74 -28 -10 0 -56 38 -104 84 -119 116 -256 230 -315 262 -63 35 -133 36
-196 4 -112 -57 -287 -223 -392 -371 -34 -49 -66 -89 -69 -89 -8 0 -16 104
-29 410 -6 129 -18 276 -26 325 -18 110 -66 217 -123 274 -49 49 -130 76 -196
66 -65 -9 -154 -58 -209 -114 l-48 -49 -130 54 c-151 63 -257 97 -383 126
-115 26 -419 34 -540 14z m356 -47 c193 -19 343 -60 558 -152 53 -22 98 -42
100 -44 3 -2 -6 -25 -19 -51 -33 -66 -89 -243 -83 -259 8 -19 26 -11 40 18 6
13 36 76 67 139 90 189 187 287 295 298 69 6 114 -12 160 -65 74 -83 104 -215
115 -493 l5 -144 -32 75 c-42 95 -80 150 -151 217 -67 64 -125 91 -189 92
-128 0 -181 -97 -158 -284 32 -254 86 -476 133 -556 28 -47 77 -99 110 -116
39 -20 112 -17 157 6 51 26 106 91 130 154 12 31 21 45 24 36 3 -8 15 -112 27
-230 12 -118 27 -253 34 -300 7 -49 10 -155 8 -247 l-4 -163 -48 0 c-177 0
-440 -104 -586 -232 -56 -49 -28 -51 59 -4 212 115 384 168 542 167 136 0 183
-16 479 -165 326 -164 353 -173 656 -210 153 -19 170 -26 170 -70 0 -51 -13
-77 -61 -124 -85 -82 -196 -125 -554 -217 -115 -29 -325 -77 -465 -105 -271
-55 -422 -99 -535 -156 -90 -46 -165 -103 -165 -126 0 -10 3 -18 7 -18 4 0 50
22 102 49 53 27 125 61 161 75 68 28 234 76 261 76 13 0 18 -23 28 -127 20
-216 48 -298 120 -367 35 -34 39 -67 20 -158 -8 -37 -22 -63 -44 -85 -62 -62
-123 -32 -145 71 -12 58 -46 110 -80 121 -28 9 -44 -3 -29 -21 6 -8 10 -16 8
-18 -2 -1 -43 -11 -90 -20 -80 -17 -90 -17 -150 -2 -300 76 -538 351 -598 690
-14 77 -12 257 2 321 l12 50 45 3 c25 1 54 6 65 11 11 5 29 12 40 16 16 5 6
12 -45 29 -292 101 -486 342 -415 513 9 21 36 57 62 80 l46 43 -44 0 c-123 1
-284 68 -383 160 l-64 60 -7 -46 c-5 -34 -16 -55 -45 -84 -55 -55 -121 -75
-250 -75 -100 0 -109 2 -174 34 -154 76 -275 253 -350 513 -97 335 -86 578 36
823 77 155 217 319 390 457 80 63 94 71 180 93 112 28 256 49 364 53 23 1 88
-3 145 -9z m937 -455 c148 -74 262 -299 262 -519 0 -157 -46 -257 -135 -290
-37 -15 -50 -16 -71 -6 -19 8 -24 16 -18 29 16 36 15 94 -1 147 -24 74 -82
157 -120 169 -17 6 -31 11 -33 12 -2 1 -14 64 -27 140 -39 221 -32 303 29 330
43 19 55 17 114 -12z m1018 -199 c56 -28 186 -136 321 -266 107 -103 121 -107
218 -59 99 50 135 39 135 -41 l0 -48 -42 -5 c-240 -30 -310 -41 -415 -62 -244
-49 -458 -130 -603 -227 -59 -39 -148 -125 -167 -160 -8 -16 -16 -27 -19 -25
-2 3 -14 91 -25 196 l-21 191 45 68 c129 199 316 387 439 443 56 26 74 25 134
-5z m-1056 -377 c20 -33 28 -98 12 -98 -15 0 -39 34 -51 72 -20 63 6 80 39 26z
m2236 -94 c27 -7 70 -26 93 -42 162 -109 127 -297 -83 -446 -81 -58 -272 -157
-478 -247 l-167 -73 -6 -60 c-3 -34 -7 -150 -8 -258 -2 -192 -3 -198 -22 -198
-58 0 -272 33 -331 51 -38 11 -186 78 -329 149 -249 123 -311 149 -382 165
l-33 7 0 156 c0 266 24 347 131 446 191 177 544 290 1084 346 272 28 438 30
531 4z m-440 -1145 c203 -65 298 -118 333 -187 28 -56 34 -110 17 -165 -33
-110 -91 -158 -179 -149 l-48 4 21 35 c11 19 20 38 20 44 0 20 -29 7 -58 -25
-30 -34 -43 -64 -84 -191 -22 -65 -25 -70 -54 -73 -22 -2 -40 4 -60 22 -27 23
-29 29 -29 105 0 76 1 81 32 113 57 59 79 151 51 212 -10 24 -79 66 -106 66
-9 0 -12 33 -12 115 0 91 3 115 14 115 7 0 71 -18 142 -41z m-192 -621 c12
-112 27 -196 39 -212 7 -8 107 -51 222 -95 354 -134 448 -179 522 -250 146
-139 29 -344 -234 -408 -194 -47 -632 3 -1188 137 -323 77 -389 138 -419 385
-16 134 -25 225 -20 225 1 0 94 18 206 41 333 67 739 176 825 223 15 8 31 15
35 16 3 0 9 -28 12 -62z"/>
<path d="M1638 3670 c-255 -44 -373 -388 -268 -779 7 -26 17 -41 27 -41 13 0
15 9 9 53 -17 140 -18 313 -2 387 21 101 76 210 127 254 108 92 237 87 499
-18 125 -51 143 -54 138 -29 -4 21 -184 113 -288 146 -87 29 -175 38 -242 27z"/>
<path d="M1790 3378 c-121 -62 -175 -241 -168 -549 3 -137 5 -147 34 -209 58
-121 167 -214 291 -247 82 -21 151 -12 241 33 175 86 276 259 258 440 -28 279
-277 532 -541 551 -60 4 -77 1 -115 -19z m273 -96 c56 -28 101 -60 144 -103
59 -57 69 -79 39 -79 -22 0 -85 -74 -101 -119 -43 -124 1 -343 87 -421 l30
-28 -34 -25 c-58 -45 -139 -77 -193 -77 -70 0 -115 15 -182 60 -73 49 -129
122 -155 202 -17 55 -19 79 -13 198 12 244 49 378 117 420 28 18 45 21 106 17
60 -3 87 -11 155 -45z m287 -298 c21 -55 7 -194 -20 -194 -14 0 -25 47 -25
110 0 97 24 141 45 84z"/>
<path d="M3700 2613 c-40 -27 -49 -45 -50 -91 0 -62 40 -102 103 -102 106 0
145 128 58 187 -40 27 -78 29 -111 6z"/>
<path d="M3513 2418 c-45 -12 -73 -51 -73 -103 0 -107 145 -141 195 -45 19 36
19 63 1 98 -22 43 -73 64 -123 50z"/>
<path d="M3932 2418 c-36 -10 -72 -57 -72 -96 0 -36 28 -80 62 -98 67 -34 148
16 148 92 0 74 -64 122 -138 102z"/>
<path d="M3714 2205 c-43 -18 -64 -51 -64 -101 0 -106 146 -139 195 -44 19 37
19 63 0 100 -25 48 -81 67 -131 45z"/>
<path d="M5975 3515 c-203 -36 -350 -185 -378 -380 -34 -238 107 -449 340
-510 129 -34 320 -11 461 55 l62 29 0 190 0 191 -125 0 -125 0 0 -114 0 -115
-56 -11 c-75 -16 -144 1 -195 47 -53 48 -73 105 -67 193 10 129 81 194 213
195 58 0 78 -5 115 -26 25 -15 53 -36 64 -47 l18 -21 37 33 c20 18 62 56 93
84 l57 51 -42 41 c-57 55 -147 98 -243 115 -95 17 -137 17 -229 0z"/>
<path d="M6711 3244 c-30 -8 -71 -24 -92 -36 l-38 -21 26 -49 c14 -26 30 -48
34 -48 5 0 27 10 50 22 63 32 192 37 237 8 33 -20 62 -72 62 -110 0 -19 -6
-20 -125 -20 -100 0 -135 -4 -178 -20 -84 -32 -120 -81 -120 -166 0 -67 25
-110 86 -148 84 -52 238 -47 305 9 38 32 42 31 42 -5 l0 -30 65 0 65 0 0 216
c0 143 -4 231 -12 258 -18 59 -84 121 -149 140 -65 20 -186 20 -258 0z m279
-388 c0 -33 -7 -52 -25 -75 -52 -61 -164 -78 -224 -33 -35 26 -42 93 -11 119
30 26 54 31 163 32 l97 1 0 -44z"/>
<path d="M7556 3244 c-22 -8 -54 -26 -73 -40 l-33 -25 0 35 0 36 -65 0 -65 0
0 -310 0 -310 70 0 70 0 0 188 c0 175 2 191 23 232 40 81 150 113 223 65 54
-35 64 -80 64 -292 l0 -193 70 0 70 0 0 173 c0 94 5 190 11 212 6 22 28 56 48
76 69 69 175 60 228 -20 22 -32 23 -43 23 -237 l0 -204 76 0 76 0 -4 223 c-4
247 -12 283 -78 345 -91 87 -308 78 -394 -17 l-19 -20 -43 38 c-23 20 -60 43
-82 49 -52 16 -148 14 -196 -4z"/>
<path d="M8725 3246 c-64 -20 -99 -42 -139 -87 -59 -65 -80 -120 -80 -214 -1
-160 78 -267 229 -310 118 -35 288 -3 350 65 17 19 17 21 -22 63 l-40 43 -28
-22 c-99 -78 -276 -48 -330 57 -32 61 -39 59 231 59 l247 0 -5 73 c-9 128 -77
223 -192 266 -65 24 -158 27 -221 7z m168 -110 c59 -21 91 -57 111 -123 l7
-23 -180 0 c-198 0 -197 0 -167 58 20 39 59 72 103 87 48 18 78 18 126 1z"/>
<path d="M5650 2235 l0 -115 130 0 130 0 0 -325 0 -325 145 0 145 0 0 325 0
325 130 0 130 0 0 115 0 115 -405 0 -405 0 0 -115z"/>
<path d="M7950 1905 l0 -435 70 0 70 0 0 168 c0 190 12 251 58 295 75 72 216
57 256 -27 13 -28 16 -70 16 -235 l0 -201 75 0 75 0 0 195 c0 106 -5 216 -11
244 -27 125 -114 192 -252 192 -77 0 -162 -26 -188 -57 -6 -8 -15 -14 -20 -14
-5 0 -9 70 -9 155 l0 155 -70 0 -70 0 0 -435z"/>
<path d="M10300 1905 l0 -435 75 0 75 0 0 435 0 435 -75 0 -75 0 0 -435z"/>
<path d="M7508 2098 c-73 -9 -137 -40 -189 -90 -56 -54 -81 -116 -87 -208 -8
-138 53 -242 176 -302 60 -30 75 -33 157 -33 73 0 100 5 142 24 49 22 123 89
123 111 0 5 -23 23 -52 39 l-52 30 -34 -34 c-101 -98 -277 -47 -311 90 -20 80
0 154 56 207 36 34 73 48 128 48 57 0 93 -14 131 -51 l31 -30 52 28 c28 15 51
33 51 38 0 22 -62 84 -106 105 -55 27 -139 38 -216 28z"/>
<path d="M9055 2099 c-59 -8 -112 -29 -141 -57 -26 -25 -34 -19 -34 25 l0 33
-65 0 -65 0 0 -315 0 -315 70 0 70 0 0 173 c0 94 5 190 11 212 16 59 74 112
131 120 57 9 99 0 134 -27 48 -38 54 -70 54 -283 l0 -195 76 0 76 0 -4 223
c-3 199 -6 227 -24 267 -50 108 -151 157 -289 139z"/>
<path d="M9778 2098 c-112 -14 -199 -77 -247 -178 -21 -45 -26 -69 -26 -135 0
-96 14 -139 65 -204 28 -35 59 -59 107 -83 61 -30 76 -33 158 -33 76 0 99 4
145 26 77 36 124 80 157 147 24 49 27 69 27 147 0 78 -3 97 -26 141 -68 129
-200 193 -360 172z m135 -132 c39 -16 82 -61 96 -99 6 -16 11 -56 11 -91 0
-114 -74 -190 -185 -190 -131 0 -208 111 -181 259 8 42 58 103 101 121 40 17
118 17 158 0z"/>
<path d="M10858 2098 c-194 -25 -316 -210 -264 -401 25 -92 76 -154 160 -197
64 -32 76 -35 160 -35 79 0 99 4 154 29 70 32 124 86 156 155 31 69 30 207 -4
276 -63 128 -200 194 -362 173z m129 -129 c35 -13 80 -55 100 -93 23 -44 20
-143 -6 -193 -72 -142 -292 -126 -342 25 -6 19 -9 63 -7 98 3 52 9 70 34 101
17 21 46 46 65 55 38 20 113 23 156 7z"/>
<path d="M6705 2083 c-68 -23 -155 -110 -178 -177 -26 -76 -23 -198 7 -261 70
-149 258 -221 435 -166 58 18 131 63 131 80 0 4 -16 26 -35 49 l-36 41 -36
-25 c-107 -72 -260 -49 -318 49 -14 24 -25 49 -25 55 0 8 70 12 248 14 l247 3
-3 64 c-4 113 -59 204 -154 256 -46 25 -66 30 -143 32 -65 2 -104 -2 -140 -14z
m185 -103 c54 -15 120 -93 120 -141 0 -5 -75 -9 -180 -9 -156 0 -180 2 -180
15 0 40 61 114 110 134 33 13 86 13 130 1z"/>
<path d="M11527 2083 c-65 -22 -139 -90 -168 -155 -35 -79 -33 -184 4 -261 34
-68 91 -120 166 -148 85 -32 198 -24 274 19 l57 32 0 -46 c0 -90 -45 -144
-138 -166 -65 -15 -164 1 -239 38 -30 14 -56 24 -57 23 -14 -17 -56 -91 -56
-99 0 -23 127 -71 219 -83 186 -23 322 27 380 141 34 66 41 146 41 439 l0 283
-70 0 -70 0 0 -41 0 -40 -35 27 c-19 14 -52 32 -72 40 -52 18 -177 16 -236 -3z
m239 -122 c177 -81 105 -342 -95 -341 -110 1 -191 77 -191 180 0 72 42 138
105 166 43 19 133 17 181 -5z"/>
<path d="M12124 2023 c19 -43 81 -186 138 -319 l105 -241 -18 -35 c-39 -76
-96 -95 -177 -58 l-42 19 -26 -51 c-25 -50 -25 -52 -8 -65 25 -18 110 -43 146
-43 99 0 180 55 227 153 27 57 282 643 302 695 8 21 7 22 -60 22 l-68 0 -98
-230 c-54 -126 -101 -230 -104 -230 -3 0 -28 53 -55 118 -28 64 -71 167 -97
227 l-47 110 -76 3 -76 3 34 -78z"/>
<path d="M5943 1196 c-128 -31 -252 -127 -304 -236 -97 -201 -38 -456 134
-574 195 -134 478 -123 650 25 26 22 47 46 46 52 0 7 -41 47 -89 90 l-89 78
-33 -32 c-91 -87 -238 -91 -315 -8 -54 59 -70 185 -34 264 37 79 95 115 187
115 65 0 108 -16 157 -60 l37 -32 33 25 c17 15 59 51 92 81 l60 54 -39 41
c-47 48 -132 95 -211 116 -70 18 -209 18 -282 1z"/>
<path d="M8118 1008 l-3 -73 -47 -3 -48 -3 0 -55 0 -54 50 0 50 0 0 -180 c0
-196 7 -230 57 -282 35 -36 84 -52 163 -51 61 0 130 22 130 40 0 4 -7 27 -17
51 -12 32 -20 41 -32 36 -9 -3 -34 -8 -57 -11 -33 -4 -46 -1 -70 20 l-29 25
-3 176 -3 176 85 0 86 0 0 55 0 54 -82 3 -83 3 -3 73 -3 72 -69 0 -69 0 -3
-72z"/>
<path d="M6765 936 c-68 -17 -103 -36 -153 -87 -79 -80 -106 -220 -67 -339 25
-74 100 -150 180 -180 68 -25 192 -31 261 -12 44 13 134 68 134 83 0 5 -16 27
-36 49 l-36 39 -37 -24 c-66 -44 -173 -51 -241 -16 -49 26 -100 87 -100 121 0
7 81 10 245 10 214 0 246 2 252 16 3 8 1 45 -5 81 -23 140 -98 224 -229 258
-67 18 -100 18 -168 1z m181 -131 c43 -25 93 -103 79 -125 -4 -6 -72 -10 -181
-10 -197 0 -194 -1 -149 77 49 82 163 109 251 58z"/>
<path d="M7583 940 c-41 -9 -78 -26 -120 -56 -23 -16 -23 -16 -23 20 l0 36
-70 0 -70 0 0 -315 0 -315 70 0 70 0 0 163 c1 89 5 182 9 206 16 81 72 132
153 139 68 5 121 -16 148 -60 18 -30 20 -50 20 -240 l0 -208 75 0 75 0 0 200
c0 109 -5 222 -11 250 -14 65 -62 128 -119 157 -51 25 -145 36 -207 23z"/>
<path d="M8752 935 c-73 -20 -100 -36 -150 -86 -62 -63 -85 -132 -80 -240 4
-97 26 -149 85 -211 111 -115 350 -125 482 -20 26 21 24 28 -21 81 l-27 32
-38 -25 c-67 -44 -162 -51 -244 -18 -26 10 -89 75 -89 92 0 4 -3 15 -6 24 -5
14 22 16 242 18 l249 3 -2 59 c-3 91 -29 153 -87 211 -79 80 -203 111 -314 80z
m184 -130 c43 -25 93 -103 79 -125 -4 -6 -70 -10 -175 -10 -105 0 -171 4 -175
10 -4 6 3 31 15 55 44 91 164 124 256 70z"/>
<path d="M9560 934 c-30 -8 -72 -28 -92 -45 l-38 -30 0 41 0 40 -70 0 -70 0 0
-315 0 -315 70 0 70 0 0 149 c0 81 5 173 10 202 17 92 67 140 155 147 l55 4 0
69 c0 79 2 78 -90 53z"/>
</g>
</svg>
