<?xml version="1.0" standalone="no"?>
<!DOCTYPE svg PUBLIC "-//W3C//DTD SVG 20010904//EN"
 "http://www.w3.org/TR/2001/REC-SVG-20010904/DTD/svg10.dtd">
<svg version="1.0" xmlns="http://www.w3.org/2000/svg"
 width="602.000000pt" height="176.000000pt" viewBox="0 0 602.000000 176.000000"
 preserveAspectRatio="xMidYMid meet">

<g transform="translate(0.000000,176.000000) scale(0.100000,-0.100000)"
fill="#000000" stroke="none">
<path d="M430 1684 c-45 -19 -106 -79 -131 -126 -62 -120 -5 -234 115 -233
l52 1 -23 -56 c-12 -30 -23 -64 -23 -75 0 -15 -6 -11 -25 18 -29 42 -90 77
-133 77 -73 0 -142 -91 -142 -186 0 -100 73 -183 163 -184 49 0 88 20 126 67
l31 38 17 -25 c9 -14 32 -38 51 -55 19 -16 55 -49 80 -73 24 -23 55 -45 68
-48 13 -3 24 -9 24 -13 0 -10 -60 -111 -66 -111 -17 0 -107 56 -115 72 -5 10
-21 18 -34 18 -14 0 -84 30 -156 66 -72 36 -133 64 -134 62 -2 -2 54 -34 125
-71 l128 -67 -11 -30 c-9 -24 -8 -36 6 -66 13 -27 15 -40 7 -48 -8 -8 -21 0
-46 32 -49 58 -94 54 -94 -9 0 -40 35 -77 88 -93 26 -8 46 -19 44 -26 -1 -6 2
-9 7 -5 19 11 -1 35 -39 45 -21 6 -48 18 -59 28 -28 22 -32 70 -8 86 15 9 24
5 55 -32 40 -46 53 -50 72 -27 10 13 10 19 -2 33 -26 29 -31 61 -14 87 31 48
56 27 56 -46 0 -35 3 -39 25 -39 14 0 25 -6 25 -12 0 -7 5 -5 11 5 10 17 49
24 49 9 0 -4 -7 -17 -15 -30 -12 -16 -13 -26 -5 -42 13 -25 26 -25 39 -2 9 15
10 15 11 0 0 -28 -11 -48 -29 -48 -12 0 -13 -2 -4 -8 10 -6 10 -12 -2 -28 -17
-22 -20 -38 -5 -29 20 12 44 71 50 118 6 57 22 62 33 11 4 -20 15 -49 24 -64
14 -25 15 -31 3 -46 -13 -14 -11 -19 14 -39 l28 -23 -16 -50 c-14 -41 -22 -51
-45 -55 -16 -4 -41 -17 -56 -31 l-27 -25 -52 26 c-39 21 -66 27 -114 27 -58 1
-66 -2 -89 -28 -18 -22 -24 -38 -21 -63 2 -18 1 -33 -2 -33 -9 0 -30 -47 -30
-64 0 -42 211 -55 327 -21 32 10 69 19 83 20 28 3 100 42 100 55 0 5 3 17 7
27 6 16 5 16 -10 5 -8 -8 -14 -19 -11 -26 3 -7 -15 -21 -41 -34 -25 -12 -45
-18 -45 -13 0 5 -26 0 -57 -11 -83 -30 -195 -35 -257 -11 -48 18 -77 45 -63
59 4 4 16 -1 28 -12 21 -19 21 -19 -1 18 -19 33 -20 40 -8 65 7 15 30 36 50
46 35 17 41 17 91 3 30 -9 70 -27 91 -41 21 -14 34 -20 30 -14 -4 8 3 9 27 4
32 -7 33 -6 14 9 -20 16 -20 16 4 36 31 26 54 26 46 0 -5 -17 -2 -20 25 -20
23 0 33 5 37 20 3 11 9 20 14 20 16 0 22 -30 9 -45 -10 -12 -9 -15 9 -15 11 0
21 -6 22 -12 0 -7 4 -4 9 7 7 18 9 16 15 -12 6 -27 14 -35 44 -42 55 -14 75
-16 88 -8 6 4 54 0 106 -8 70 -11 107 -13 146 -5 84 16 94 25 88 76 -2 24 -1
47 4 50 18 11 8 53 -17 73 -51 40 -201 18 -245 -35 -6 -8 9 -3 34 11 92 52
217 39 217 -21 0 -15 -10 -39 -22 -53 -13 -14 -16 -20 -6 -13 22 18 32 -1 10
-20 -53 -47 -151 -64 -252 -45 -45 9 -77 11 -81 6 -3 -6 -22 -6 -48 0 -47 10
-63 21 -43 28 10 4 8 9 -7 20 -31 21 -26 29 17 27 20 -2 27 0 15 2 -12 3 -27
12 -34 20 -10 12 -9 18 4 32 16 15 17 15 17 -7 0 -16 5 -21 18 -17 9 2 27 7
40 11 12 3 22 11 22 16 0 6 -5 7 -10 4 -6 -3 -10 -1 -10 4 0 6 6 11 13 11 22
0 40 -18 34 -34 -5 -12 0 -16 23 -16 17 0 30 4 30 10 0 5 -6 7 -14 4 -9 -3
-17 3 -21 15 -4 12 -19 24 -38 29 -28 7 -32 13 -35 45 -3 30 0 37 15 37 10 0
28 7 41 15 18 14 20 19 9 35 -9 16 -9 24 2 42 22 36 30 86 19 126 -12 43 -35
73 -51 66 -7 -2 -19 18 -28 51 l-16 55 51 0 c140 1 253 75 280 182 3 15 15 32
26 38 11 6 20 17 20 24 0 7 10 17 23 23 12 6 33 31 47 57 l24 45 -20 28 c-25
34 -56 50 -112 59 -30 5 -42 3 -42 -5 0 -7 4 -9 10 -6 18 11 81 -7 111 -32 35
-30 38 -66 7 -87 -31 -22 -52 -21 -43 2 4 9 9 28 11 42 3 18 1 16 -6 -6 -6
-19 -19 -34 -32 -37 -27 -8 -41 1 -33 20 4 13 3 14 -10 3 -8 -7 -26 -10 -40
-8 -20 4 -23 3 -14 -8 6 -8 22 -14 35 -14 13 0 28 -8 33 -17 6 -10 11 -13 11
-6 0 12 80 13 80 1 0 -4 -13 -14 -30 -23 -19 -10 -27 -20 -24 -30 5 -12 -3
-15 -38 -15 -45 0 -82 17 -76 37 2 5 -7 19 -20 29 -15 12 -25 34 -29 61 -5 36
-2 45 22 67 27 25 27 27 24 133 -4 105 -3 108 18 111 40 6 57 -37 50 -126 -3
-51 -2 -69 4 -54 16 41 21 126 10 154 -15 39 -54 62 -80 48 -20 -10 -21 -16
-15 -125 7 -114 7 -115 -18 -135 -14 -11 -29 -31 -32 -45 -7 -29 19 -94 41
-102 7 -3 13 -13 13 -23 0 -10 10 -24 21 -32 29 -19 19 -66 -24 -115 -44 -50
-98 -73 -177 -73 -94 0 -103 11 -38 48 59 33 111 81 140 127 22 36 24 102 3
125 -12 14 -13 23 -4 49 23 66 -24 148 -67 117 -16 -12 -17 -20 -7 -72 6 -33
10 -60 9 -61 0 0 -10 -3 -20 -5 -16 -2 -21 6 -31 48 -18 79 -68 138 -144 170
-43 18 -137 18 -188 0 l-40 -14 18 49 c60 158 -32 273 -171 213z m407 -276
c64 -38 113 -118 113 -184 0 -18 -4 -36 -10 -39 -5 -3 -15 -16 -21 -28 -10
-20 -9 -19 17 4 37 34 74 53 74 39 0 -5 11 -10 25 -10 51 0 59 -64 15 -133
-30 -48 -124 -118 -176 -131 -14 -4 -37 -20 -50 -36 -14 -16 -44 -36 -69 -45
-62 -24 -105 -14 -145 33 -17 20 -44 51 -59 67 -39 40 -52 68 -54 114 -2 50
16 71 61 71 l36 0 -31 33 c-39 41 -53 68 -53 104 0 38 33 89 69 108 38 19 111
20 137 0 27 -20 32 -19 26 10 -11 58 23 66 95 23z m-83 -619 c3 -17 6 -45 6
-61 0 -26 -2 -28 -21 -17 -19 10 -25 7 -44 -17 -13 -16 -26 -26 -29 -23 -9 9
57 148 70 149 6 0 14 -14 18 -31z m-185 -100 c-8 -5 -26 -9 -41 -9 -24 0 -28
4 -28 30 l0 30 42 -21 c31 -16 38 -23 27 -30z m399 -52 c4 -36 -15 -62 -34
-46 -25 21 -13 82 15 77 9 -2 17 -15 19 -31z m-96 -12 c16 -35 -5 -83 -27 -65
-16 13 -19 47 -9 74 9 23 23 20 36 -9z m-12 -150 c0 -8 4 -15 9 -15 15 0 -1
-84 -19 -102 -10 -9 -21 -31 -25 -48 -4 -16 -11 -30 -16 -30 -6 0 -8 9 -4 19
4 13 -1 24 -15 34 -19 13 -21 21 -15 60 6 39 12 47 36 56 16 5 29 17 29 25 0
9 5 16 10 16 6 0 10 -7 10 -15z"/>
<path d="M807 1343 c-10 -10 -8 -58 3 -88 8 -21 15 -26 31 -22 19 5 19 4 6
-11 -13 -15 -14 -21 -2 -49 8 -18 21 -33 29 -33 39 0 26 117 -20 178 -25 32
-35 38 -47 25z"/>
<path d="M665 1300 c-7 -12 11 -75 31 -107 9 -15 20 -20 36 -16 22 4 22 4 4
-11 -18 -14 -18 -16 4 -50 12 -21 30 -36 41 -36 16 0 19 7 19 43 -1 95 -103
229 -135 177z"/>
<path d="M574 1080 c-24 -9 -39 -28 -30 -37 3 -3 16 1 29 10 l23 15 0 -62 c0
-142 110 -201 206 -109 15 15 28 32 28 37 -1 6 -45 38 -98 72 -53 33 -96 66
-94 72 2 14 -33 15 -64 2z"/>
<path d="M1525 1329 c-60 -14 -87 -61 -44 -74 12 -4 26 -2 32 4 8 8 6 11 -6
11 -9 0 -17 5 -17 10 0 16 185 12 253 -6 82 -21 175 -64 245 -114 89 -62 132
-129 132 -206 0 -40 -5 -51 -34 -79 -53 -50 -168 -76 -255 -59 l-31 7 0 83 0
84 36 0 c44 0 122 -19 130 -32 4 -5 1 -15 -5 -21 -6 -6 -11 -15 -11 -19 0 -15
37 -8 53 10 52 57 -27 122 -148 122 l-53 0 -4 56 c-3 33 -11 59 -19 64 -18 12
-27 -5 -36 -71 -8 -52 -8 -53 -53 -64 -61 -16 -107 -41 -120 -65 -9 -16 -7
-26 9 -48 27 -37 69 -75 117 -105 29 -18 43 -34 47 -56 5 -23 12 -31 28 -31
12 0 23 8 26 18 4 16 14 18 93 14 115 -6 187 15 246 72 82 79 78 165 -10 278
-126 159 -408 261 -601 217z m211 -406 c-4 -37 -9 -70 -12 -72 -8 -9 -90 39
-118 68 -23 24 -25 30 -12 40 8 7 36 16 63 21 92 15 87 19 79 -57z"/>
<path d="M1180 1286 c0 -2 7 -7 16 -10 8 -3 12 -2 9 4 -6 10 -25 14 -25 6z"/>
<path d="M2250 1268 c-63 -33 -84 -66 -76 -120 8 -55 20 -73 37 -62 8 5 33 9
55 9 73 1 165 83 149 134 -5 18 -81 61 -106 61 -8 0 -35 -10 -59 -22z m-17
-71 c-15 -18 -30 -29 -32 -24 -4 10 38 57 52 57 5 0 -4 -15 -20 -33z m147 8
c0 -31 -36 -55 -92 -62 l-43 -5 47 46 c53 52 88 60 88 21z"/>
<path d="M2720 1081 c0 -6 7 -40 16 -77 8 -37 14 -78 12 -92 -3 -21 -9 -16
-52 47 -26 39 -52 71 -57 71 -36 0 -67 -202 -36 -229 26 -21 37 -3 37 63 0 34
3 66 6 69 4 4 22 -19 41 -51 44 -73 47 -76 76 -69 61 16 62 142 1 239 -23 36
-44 50 -44 29z"/>
<path d="M3380 915 c0 -137 2 -165 14 -165 11 0 16 15 18 53 l3 52 55 3 55 3
34 -56 c22 -35 40 -55 52 -55 17 0 14 8 -18 56 -33 49 -35 57 -21 65 80 45 72
165 -12 195 -19 7 -68 13 -107 13 l-73 1 0 -165z m191 106 c17 -13 23 -29 23
-56 0 -56 -29 -75 -115 -75 l-69 0 0 75 0 75 69 0 c52 0 74 -4 92 -19z"/>
<path d="M3720 915 l0 -165 110 0 c91 0 110 3 110 15 0 12 -17 15 -95 15 l-95
0 0 60 0 60 80 0 c64 0 80 3 80 15 0 12 -16 15 -80 15 l-80 0 0 55 0 55 90 0
c83 0 90 1 90 20 0 19 -7 20 -105 20 l-105 0 0 -165z"/>
<path d="M4050 1062 c-24 -12 -37 -27 -44 -50 -13 -48 13 -79 94 -108 58 -21
90 -44 90 -65 0 -4 -8 -17 -18 -29 -22 -27 -100 -30 -137 -6 -31 20 -45 20
-45 1 0 -19 74 -54 113 -55 39 0 93 25 106 48 31 59 3 101 -89 135 -51 19 -67
30 -75 51 -17 50 28 65 140 45 35 -7 22 25 -15 38 -49 17 -80 16 -120 -5z"/>
<path d="M4300 915 l0 -165 110 0 c91 0 110 3 110 15 0 12 -17 15 -90 15 l-90
0 0 60 0 60 80 0 c64 0 80 3 80 15 0 12 -16 15 -80 15 l-80 0 0 55 0 55 90 0
c83 0 90 1 90 20 0 19 -7 20 -110 20 l-110 0 0 -165z"/>
<path d="M4637 931 c-86 -192 -82 -181 -63 -181 11 0 25 18 37 45 l20 46 87
-3 87 -3 20 -42 c13 -27 27 -42 38 -43 10 0 17 4 15 8 -1 5 -34 79 -73 165
-48 109 -74 157 -85 157 -12 0 -37 -46 -83 -149z m119 23 c19 -41 34 -77 34
-80 0 -2 -31 -4 -70 -4 -38 0 -70 2 -70 5 0 10 63 155 67 155 2 0 20 -34 39
-76z"/>
<path d="M4940 916 c0 -141 2 -166 15 -166 12 0 15 13 15 55 l0 55 55 0 54 0
36 -55 c19 -30 42 -55 50 -55 21 0 19 5 -15 55 -16 24 -30 46 -30 50 0 3 11
16 25 28 52 45 48 129 -7 170 -21 16 -48 22 -113 25 l-85 5 0 -167z m190 104
c24 -24 26 -76 4 -105 -12 -16 -29 -20 -89 -23 l-75 -4 0 76 0 76 70 0 c57 0
74 -4 90 -20z"/>
<path d="M5355 1067 c-49 -19 -74 -42 -95 -83 -47 -92 3 -197 108 -229 53 -16
166 24 148 53 -4 7 -21 4 -51 -9 -55 -24 -100 -18 -145 20 -27 22 -33 36 -37
77 -7 68 15 110 70 135 53 24 64 24 111 -1 22 -10 43 -17 47 -14 48 29 -95 76
-156 51z"/>
<path d="M5600 915 c0 -140 2 -165 15 -165 12 0 15 15 15 75 l0 75 100 0 100
0 0 -75 c0 -60 3 -75 15 -75 13 0 15 25 15 165 0 140 -2 165 -15 165 -12 0
-15 -15 -15 -75 l0 -75 -100 0 -100 0 0 75 c0 60 -3 75 -15 75 -13 0 -15 -25
-15 -165z"/>
<path d="M2911 1049 c-35 -4 -66 -11 -70 -14 -3 -4 4 -15 17 -25 19 -16 21
-23 12 -40 -6 -11 -14 -20 -18 -20 -4 0 -8 -10 -9 -22 0 -13 -4 -41 -8 -63 -9
-54 10 -79 58 -77 60 2 128 47 112 73 -5 8 -25 9 -62 5 -48 -6 -55 -4 -49 10
3 8 6 19 6 24 0 4 20 10 45 13 52 5 60 10 52 32 -4 9 -19 15 -41 15 -29 0 -33
3 -29 20 5 17 14 20 59 20 61 0 73 11 44 40 -22 22 -23 22 -119 9z"/>
<path d="M2236 1019 c-9 -46 -7 -202 3 -217 5 -8 17 -12 27 -10 17 3 19 13 18
104 -1 115 -8 154 -28 154 -7 0 -16 -14 -20 -31z"/>
<path d="M2385 1035 c-40 -14 -75 -47 -75 -70 0 -23 25 -33 103 -40 52 -5 85
-13 100 -26 l22 -18 -37 -15 c-42 -18 -134 -21 -143 -5 -13 19 5 23 54 10 38
-10 55 -10 71 -1 32 17 11 32 -53 38 -65 5 -97 -9 -97 -43 0 -47 81 -85 154
-71 53 10 78 35 79 80 1 52 -25 72 -105 81 -35 3 -72 9 -83 12 -19 6 -19 6 1
13 11 5 52 11 90 15 87 8 104 13 104 30 0 27 -117 34 -185 10z"/>
<path d="M3109 1019 c-47 -62 -60 -97 -58 -157 1 -34 -7 -89 -19 -136 -12 -44
-22 -91 -22 -106 0 -26 34 -69 45 -58 3 3 17 47 30 98 14 51 28 96 31 101 2 5
23 13 45 19 87 24 153 122 129 194 -18 55 -40 61 -88 26 -22 -16 -56 -50 -76
-76 -30 -39 -36 -43 -36 -24 0 12 12 44 26 70 14 26 24 56 22 66 -2 14 -8 11
-29 -17z m151 -69 c0 -36 -28 -77 -64 -94 -19 -9 -37 -16 -40 -16 -8 0 41 79
67 108 25 27 37 28 37 2z"/>
<path d="M488 653 c6 -2 18 -2 25 0 6 3 1 5 -13 5 -14 0 -19 -2 -12 -5z"/>
<path d="M1650 650 c0 -7 230 -10 670 -10 440 0 670 3 670 10 0 7 -230 10
-670 10 -440 0 -670 -3 -670 -10z"/>
<path d="M3110 650 c0 -7 473 -10 1400 -10 927 0 1400 3 1400 10 0 7 -473 10
-1400 10 -927 0 -1400 -3 -1400 -10z"/>
<path d="M477 623 c-15 -14 -6 -19 28 -15 19 2 32 8 29 13 -6 10 -48 12 -57 2z"/>
<path d="M494 585 c-24 -18 -7 -19 26 0 16 9 19 14 9 15 -8 0 -24 -7 -35 -15z"/>
<path d="M323 533 c-21 -8 -15 -51 9 -67 30 -21 76 -20 113 2 41 25 85 10 85
-29 0 -15 7 -35 16 -43 28 -29 84 -14 84 21 0 8 -8 5 -21 -8 -18 -18 -23 -19
-42 -6 -13 8 -23 27 -25 45 -3 26 -9 33 -37 41 -27 7 -42 5 -75 -12 -32 -15
-48 -18 -69 -11 -32 12 -43 60 -14 67 11 3 12 5 3 5 -8 0 -21 -2 -27 -5z"/>
<path d="M1683 503 c-27 -5 -53 -39 -53 -69 0 -37 31 -63 89 -74 63 -12 81
-24 81 -55 0 -34 -23 -47 -77 -43 -39 2 -50 7 -58 26 -11 24 -35 30 -35 8 0
-8 9 -24 19 -37 16 -21 28 -24 81 -24 53 0 65 3 81 24 43 53 7 113 -75 124
-57 8 -76 21 -76 51 0 32 19 46 65 46 45 0 58 -7 68 -32 8 -24 27 -23 27 0 0
41 -71 70 -137 55z"/>
<path d="M5035 501 c-46 -20 -60 -49 -60 -125 0 -84 15 -119 57 -137 39 -16
105 -5 134 22 22 20 24 31 24 105 0 72 -3 86 -23 109 -25 29 -94 43 -132 26z
m107 -38 c14 -13 18 -31 18 -91 0 -92 -13 -112 -74 -112 -50 0 -62 7 -75 43
-21 55 -8 150 22 169 22 14 90 8 109 -9z"/>
<path d="M5733 495 c-30 -13 -33 -18 -33 -58 0 -25 6 -49 13 -56 8 -6 42 -16
78 -23 59 -12 64 -15 67 -41 5 -41 -14 -57 -64 -57 -40 0 -74 18 -74 41 0 5
-7 9 -15 9 -18 0 -18 -2 -4 -33 35 -77 189 -55 189 26 0 53 -22 70 -103 82
-62 10 -85 45 -51 79 31 32 113 15 126 -26 2 -6 9 -8 16 -4 19 11 -7 54 -41
66 -39 13 -65 12 -104 -5z"/>
<path d="M2310 490 c0 -5 18 -10 40 -10 l40 0 0 -120 c0 -100 3 -120 15 -120
13 0 15 20 15 120 l0 120 40 0 c22 0 40 5 40 10 0 6 -38 10 -95 10 -57 0 -95
-4 -95 -10z"/>
<path d="M3000 400 c0 -112 10 -143 51 -161 41 -16 110 -5 131 21 25 30 27
240 3 240 -12 0 -15 -19 -15 -108 0 -71 -4 -112 -12 -120 -18 -18 -94 -15
-112 4 -13 12 -16 38 -16 120 0 86 -3 104 -15 104 -12 0 -15 -18 -15 -100z"/>
<path d="M3720 370 l0 -130 75 0 c67 0 79 3 100 25 22 22 25 32 25 105 0 73
-3 83 -25 105 -21 22 -33 25 -100 25 l-75 0 0 -130z m154 91 c12 -10 16 -33
16 -92 0 -69 -2 -80 -22 -93 -13 -9 -43 -16 -70 -16 l-48 0 0 111 0 111 54 -4
c30 -3 62 -10 70 -17z"/>
<path d="M4430 370 c0 -109 2 -130 15 -130 13 0 15 21 15 130 0 109 -2 130
-15 130 -13 0 -15 -21 -15 -130z"/>
<path d="M590 466 c0 -2 8 -10 18 -17 15 -13 16 -12 3 4 -13 16 -21 21 -21 13z"/>
<path d="M660 300 c0 -5 5 -10 10 -10 6 0 10 5 10 10 0 6 -4 10 -10 10 -5 0
-10 -4 -10 -10z"/>
<path d="M1088 223 c12 -2 30 -2 40 0 9 3 -1 5 -23 4 -22 0 -30 -2 -17 -4z"/>
<path d="M388 158 c5 -5 16 -8 23 -6 8 3 3 7 -10 11 -17 4 -21 3 -13 -5z"/>
<path d="M463 143 c20 -2 54 -2 75 0 20 2 3 4 -38 4 -41 0 -58 -2 -37 -4z"/>
</g>
</svg>
