<?xml version="1.0" standalone="no"?>
<!DOCTYPE svg PUBLIC "-//W3C//DTD SVG 20010904//EN"
 "http://www.w3.org/TR/2001/REC-SVG-20010904/DTD/svg10.dtd">
<svg version="1.0" xmlns="http://www.w3.org/2000/svg"
 width="239.000000pt" height="90.000000pt" viewBox="0 0 239.000000 90.000000"
 preserveAspectRatio="xMidYMid meet">

<g transform="translate(0.000000,90.000000) scale(0.100000,-0.100000)"
fill="#000000" stroke="none">
<path d="M10 445 l0 -395 395 0 395 0 0 395 0 395 -395 0 -395 0 0 -395z m445
308 c19 -9 35 -19 35 -22 0 -3 -65 -33 -145 -65 -79 -32 -147 -66 -150 -74 -3
-9 -5 -84 -4 -166 0 -83 -3 -152 -8 -154 -4 -1 -20 2 -35 7 l-28 10 0 185 0
184 73 30 c39 17 99 41 132 55 73 31 85 32 130 10z m185 -88 c44 -23 45 -23
20 -33 -93 -36 -279 -116 -298 -128 -22 -15 -23 -18 -22 -195 1 -99 -1 -183
-3 -186 -3 -2 -19 3 -36 12 l-31 16 0 202 0 203 158 66 c86 36 159 66 162 66
3 1 25 -10 50 -23z m40 -148 l0 -43 -82 -34 c-102 -41 -108 -46 -108 -80 0
-39 7 -41 61 -19 28 10 52 19 55 19 3 0 4 -19 2 -42 l-3 -42 -93 -37 -93 -38
3 126 3 126 125 53 c69 30 126 54 128 54 1 0 2 -19 2 -43z"/>
<path d="M957 648 c5 -168 4 -168 123 -168 122 0 124 3 122 168 l-1 127 -32 0
-31 0 -2 -115 -1 -115 -55 0 -55 0 -2 40 c-1 22 -2 75 -2 118 l-1 77 -33 0
-34 0 4 -132z"/>
<path d="M1260 778 c0 -2 -1 -69 -3 -151 l-2 -147 35 0 35 0 0 47 c0 67 22 68
70 3 35 -47 39 -50 82 -50 l44 0 -35 44 c-41 49 -44 62 -16 69 49 13 54 147 6
179 -10 7 -216 12 -216 6z m178 -95 l3 -33 -60 0 c-60 0 -61 0 -61 28 0 39 7
43 65 40 48 -3 50 -4 53 -35z"/>
<path d="M1560 778 c0 -2 -1 -69 -3 -151 l-2 -147 108 0 c94 0 109 2 127 20
23 23 26 64 7 100 -11 21 -11 29 1 48 18 27 10 86 -14 113 -15 16 -32 19 -121
19 -56 0 -103 -1 -103 -2z m174 -74 c14 -38 7 -44 -49 -44 -57 0 -74 12 -61
45 8 22 102 21 110 -1z m1 -134 c0 -23 -4 -25 -53 -28 -40 -2 -54 1 -58 12
-13 35 3 47 58 44 49 -3 53 -5 53 -28z"/>
<path d="M1905 708 c-15 -40 -40 -108 -56 -150 l-28 -78 35 0 c27 0 37 5 41
20 5 17 14 20 64 20 48 0 60 -4 69 -20 12 -23 86 -30 77 -7 -2 6 -31 74 -63
150 -54 127 -60 137 -85 137 -24 0 -29 -7 -54 -72z m78 -88 l15 -40 -35 0
c-28 0 -34 3 -29 16 3 9 9 27 12 40 9 34 19 30 37 -16z"/>
<path d="M2130 630 l0 -150 35 0 34 0 3 91 3 91 58 -91 c55 -85 61 -91 93 -91
l34 0 0 151 0 150 -32 -3 -31 -3 2 -82 c1 -46 -1 -83 -6 -83 -4 0 -33 38 -63
85 -53 81 -56 85 -92 85 l-38 0 0 -150z"/>
<path d="M970 383 c-20 -25 -21 -38 -18 -136 4 -135 6 -137 128 -137 109 0
120 9 120 98 l0 62 -60 0 -60 0 0 -30 c0 -25 4 -30 25 -30 19 0 25 -5 25 -21
0 -18 -5 -20 -52 -17 l-53 3 0 85 0 85 53 3 c42 2 52 0 52 -12 0 -12 10 -16
35 -16 32 0 35 3 35 28 0 49 -26 62 -123 62 -81 0 -87 -1 -107 -27z"/>
<path d="M1319 383 c-30 -79 -99 -265 -99 -268 0 -3 15 -5 34 -5 26 0 36 5 41
20 5 17 15 20 65 20 50 0 60 -3 65 -20 5 -15 15 -20 45 -20 33 0 38 3 33 18
-4 9 -32 75 -63 147 -50 117 -59 130 -83 133 -22 3 -29 -2 -38 -25z m65 -150
c7 -20 4 -23 -23 -23 -35 0 -35 -1 -19 52 11 39 12 39 24 16 6 -13 15 -33 18
-45z"/>
<path d="M1530 261 l0 -151 35 0 35 0 0 78 1 77 32 -60 c45 -85 66 -85 109 -3
l33 63 3 -77 3 -78 29 0 30 0 0 140 c0 77 1 143 3 148 1 4 -14 8 -34 10 l-35
3 -40 -88 -40 -88 -45 85 c-42 82 -45 85 -81 88 l-38 3 0 -150z"/>
<path d="M1890 260 l0 -150 110 0 110 0 0 30 0 30 -75 0 -75 0 0 30 c0 30 1
30 55 30 30 0 56 5 56 10 6 55 6 55 -54 58 -53 3 -57 5 -57 27 0 24 2 25 75
25 l75 0 0 30 0 30 -110 0 -110 0 0 -150z"/>
<path d="M2166 394 c-9 -8 -16 -23 -17 -32 -7 -113 8 -132 103 -132 l68 0 0
-30 c0 -29 -1 -30 -50 -30 -38 0 -50 4 -50 15 0 10 -11 15 -35 15 -32 0 -35
-3 -35 -28 0 -49 26 -62 122 -62 105 0 118 10 118 93 0 72 -19 87 -107 87 -65
0 -78 8 -68 40 5 16 15 20 56 20 27 0 49 -4 49 -10 0 -5 16 -10 35 -10 30 0
35 3 35 23 0 44 -28 57 -123 57 -64 0 -89 -4 -101 -16z"/>
</g>
</svg>
